<svg width="64" height="64" viewBox="0 0 64 64" fill="none" xmlns="http://www.w3.org/2000/svg">
  <path d="M10.6667 21.3333H21.3334C22.7479 21.3333 24.1044 20.7714 25.1046 19.7712C26.1048 18.771 26.6667 17.4145 26.6667 16V10.6667C26.6667 9.25217 27.2286 7.89563 28.2288 6.89543C29.229 5.89523 30.5856 5.33333 32 5.33333H53.3334C54.7479 5.33333 56.1044 5.89523 57.1046 6.89543C58.1048 7.89563 58.6667 9.25217 58.6667 10.6667V53.3333C58.6667 54.7478 58.1048 56.1044 57.1046 57.1046C56.1044 58.1048 54.7479 58.6667 53.3334 58.6667H10.6667C9.25222 58.6667 7.89567 58.1048 6.89547 57.1046C5.89527 56.1044 5.33337 54.7478 5.33337 53.3333V26.6667C5.33337 25.2522 5.89527 23.8956 6.89547 22.8954C7.89567 21.8952 9.25222 21.3333 10.6667 21.3333Z" stroke="#86868B" stroke-width="2" stroke-linecap="round" stroke-linejoin="round"/>
</svg>