<svg width="24" height="24" viewBox="0 0 24 24" fill="none" xmlns="http://www.w3.org/2000/svg">
  <path d="M14 2H6C5.46957 2 4.96086 2.21071 4.58579 2.58579C4.21071 2.96086 4 3.46957 4 4V20C4 20.5304 4.21071 21.0391 4.58579 21.4142C4.96086 21.7893 5.46957 22 6 22H18C18.5304 22 19.0391 21.7893 19.4142 21.4142C19.7893 21.0391 20 20.5304 20 20V8L14 2Z" stroke="#5856D6" stroke-width="2" stroke-linecap="round" stroke-linejoin="round"/>
  <path d="M14 2V8H20" stroke="#5856D6" stroke-width="2" stroke-linecap="round" stroke-linejoin="round"/>
  <path d="M9.5 17C10.3284 17 11 16.3284 11 15.5C11 14.6716 10.3284 14 9.5 14C8.67157 14 8 14.6716 8 15.5C8 16.3284 8.67157 17 9.5 17Z" stroke="#5856D6" stroke-width="2" stroke-linecap="round" stroke-linejoin="round"/>
  <path d="M14.5 14C14.5 16.5 12 17 9.5 17" stroke="#5856D6" stroke-width="2" stroke-linecap="round" stroke-linejoin="round"/>
  <path d="M11 15.5V12.5C11 12.5 12 12 14 12.5" stroke="#5856D6" stroke-width="2" stroke-linecap="round" stroke-linejoin="round"/>
</svg>