<svg width="20" height="20" viewBox="0 0 20 20" fill="none" xmlns="http://www.w3.org/2000/svg">
  <path d="M16.6667 5V10M16.6667 10H11.6667M16.6667 10L13.7501 7.08333C13.0335 6.36702 12.1442 5.83073 11.162 5.52469C10.1798 5.21866 9.13406 5.15317 8.12102 5.33452C7.10798 5.51587 6.15839 5.9388 5.35606 6.56668C4.55373 7.19456 3.9273 8.00543 3.53434 8.92877M3.33341 15V10M3.33341 10H8.33341M3.33341 10L6.25008 12.9167C6.96664 13.633 7.85598 14.1693 8.83817 14.4753C9.82037 14.7814 10.8661 14.8468 11.8791 14.6655C12.8922 14.4841 13.8418 14.0612 14.6441 13.4333C15.4464 12.8054 16.0729 11.9946 16.4658 11.0712" stroke="#0A84FF" stroke-width="1.5" stroke-linecap="round" stroke-linejoin="round"/>
</svg>